<svg id="Layer_1" data-name="Layer 1" xmlns="http://www.w3.org/2000/svg" viewBox="0 0 265 265"><title>square-logomark</title><path d="M91.13,191.33V58.92l-14.8,14.8V206h52.39l-14.63-14.63Z"/><path d="M188.91,86.08V77.33A18.28,18.28,0,0,0,171.19,59h-9.05A18.41,18.41,0,0,0,143.6,77.33V187.68A18.41,18.41,0,0,0,162.14,206h9.05a18.42,18.42,0,0,0,17.72-18.32v-27l-14.63,14.63V185a7.92,7.92,0,1,1-15.83,0V79.81a7.92,7.92,0,0,1,15.83,0v20.94Z"/><polyline points="218.86 225.43 218.86 28.96 78.89 28.96 46.14 61.74 46.14 236.04 208.24 236.04 193.22 221.02 61.15 221.02 61.15 67.66 84.84 43.98 203.85 43.98 203.85 210.41 218.86 225.43"/></svg>