<svg id="Layer_1" data-name="Layer 1" xmlns="http://www.w3.org/2000/svg" viewBox="0 0 69.34 83.13"><defs><style>.cls-1{fill:#fff;}</style></defs><title>square-logomark-white</title><path class="cls-1" d="M19.92,62.54V15.33l-5.28,5.28V67.76H33.32L28.1,62.54Z"/><path class="cls-1" d="M54.78,25V21.89a6.52,6.52,0,0,0-6.32-6.53H45.24a6.57,6.57,0,0,0-6.61,6.53V61.24a6.57,6.57,0,0,0,6.61,6.53h3.23a6.57,6.57,0,0,0,6.32-6.53V51.62l-5.22,5.22v3.44a2.82,2.82,0,1,1-5.65,0V22.78a2.82,2.82,0,0,1,5.65,0v7.47Z"/><polyline class="cls-1" points="65.46 74.7 65.46 4.64 15.55 4.64 3.88 16.33 3.88 78.48 61.67 78.48 56.32 73.13 9.23 73.13 9.23 18.45 17.67 10 60.11 10 60.11 69.34 65.46 74.7"/></svg>