<svg id="Layer_1" data-name="Layer 1" xmlns="http://www.w3.org/2000/svg" viewBox="0 0 265 265"><defs><style>.cls-1,.cls-2{fill:none;stroke:#000;stroke-width:4px;}.cls-1{stroke-linecap:round;stroke-linejoin:round;}</style></defs><title>square-logomark copy</title><polyline class="cls-1" points="61.15 133.22 61.15 221.02 193.22 221.02 208.24 236.04 46.14 236.04 46.14 61.74 79.13 28.96 218.86 28.96 218.86 225.46 203.88 210.48 203.85 43.98 84.84 43.98 61.15 67.66 61.15 133.22"/><path class="cls-2" d="M76.32,84.88V206h52.39l-14.63-14.63h-23V58.92l-14.8,14.8V84.88"/><path class="cls-2" d="M158.45,163.54V79.81a7.92,7.92,0,0,1,15.83,0v20.94l14.63-14.67V77.33A18.28,18.28,0,0,0,171.19,59h-9.05A18.41,18.41,0,0,0,143.6,77.33V187.68A18.41,18.41,0,0,0,162.14,206h9.05a18.42,18.42,0,0,0,17.72-18.32v-27l-14.63,14.63V185a7.92,7.92,0,1,1-15.83,0V163.54"/></svg>