<svg xmlns="http://www.w3.org/2000/svg" viewBox="0 0 55.55 55.5"><title>behance</title><g id="Layer_2" data-name="Layer 2"><path d="M1.16,44.38V11.11h.47c5.11,0,10.23,0,15.34,0a14.5,14.5,0,0,1,5,.76,7.46,7.46,0,0,1,5.17,5.68,8.61,8.61,0,0,1-.8,6.4,6.33,6.33,0,0,1-2.41,2.24l-.45.27s0,0,0,.09c.43.21.86.39,1.27.63a7.41,7.41,0,0,1,3.73,6.58,9.62,9.62,0,0,1-4.55,9,9.07,9.07,0,0,1-4.21,1.37c-1.68.15-3.38.23-5.07.25-4.28,0-8.56,0-12.84,0Zm7.68-5.77c.87,0,1.72,0,2.56,0,2,0,4,0,6-.11a4,4,0,0,0,3-1.32,5,5,0,0,0,1-4.12A3.36,3.36,0,0,0,19,30.19a8.65,8.65,0,0,0-3-.44H9.25l-.41,0Zm0-14.42a3,3,0,0,0,.32,0c2.25,0,4.5,0,6.74,0a10.92,10.92,0,0,0,2.62-.42,2.5,2.5,0,0,0,2-1.9,7.25,7.25,0,0,0,.16-2.2,2.54,2.54,0,0,0-2.12-2.37,17.48,17.48,0,0,0-2.89-.4c-2.17-.06-4.35,0-6.52,0l-.28,0Z"/><path d="M54.53,33.19H37.32c0,2.62,1.14,4.58,3.22,5.41a6.54,6.54,0,0,0,5.08,0,3.9,3.9,0,0,0,2-1.76.84.84,0,0,1,.87-.48c1.75,0,3.51,0,5.26,0h.53a6.54,6.54,0,0,1-1.4,3.23,10.21,10.21,0,0,1-5.71,4c-4.49,1.16-8.69.62-12.43-2.3a9.12,9.12,0,0,1-3.28-5.44,18.15,18.15,0,0,1,.3-9.47,10.22,10.22,0,0,1,5.45-6.31,13.21,13.21,0,0,1,7.74-1A11.8,11.8,0,0,1,49,20.32a10.14,10.14,0,0,1,4.26,4.51,11.73,11.73,0,0,1,1.26,5C54.57,30.91,54.53,32,54.53,33.19ZM48.11,29c-.1-3-2.12-5-5.32-5-3.39,0-5,2.27-5.31,5Z"/><path d="M49.42,12.53v3.26H36.07V12.53Z"/></g></svg>