<svg xmlns="http://www.w3.org/2000/svg" viewBox="0 0 55.55 55.5"><title>codepen</title><g id="Layer_2" data-name="Layer 2"><path d="M2.94,35.75v-16a2.06,2.06,0,0,1,.87-1.19L26.45,3.47a10.86,10.86,0,0,1,1.07-.56H28a6.44,6.44,0,0,1,.83.4L51.48,18.38a2.24,2.24,0,0,1,1.12,1.41V35.7a2.25,2.25,0,0,1-1.08,1.38q-7,4.66-14,9.35l-8.69,5.8a1.65,1.65,0,0,1-2,0L4.06,37.11A2.34,2.34,0,0,1,2.94,35.75ZM26.11,7.67,7.58,20l8.6,5.73.14-.09,9.62-6.41a.38.38,0,0,0,.17-.38q0-5.45,0-10.89Zm3.34,0c0,.11,0,.17,0,.24q0,5.51,0,11a.37.37,0,0,0,.2.34l9.55,6.37a.28.28,0,0,0,.37,0l8.22-5.49.18-.14Zm0,40.15L48,35.48l-.17-.13-8.24-5.5a.28.28,0,0,0-.37,0L29.65,36.2a.45.45,0,0,0-.23.43q0,5.45,0,10.89Zm-3.33,0c0-.11,0-.18,0-.24q0-5.5,0-11a.39.39,0,0,0-.21-.36l-9.53-6.36a.3.3,0,0,0-.4,0L9.77,34,7.58,35.47ZM36.36,27.75l-.25-.18L28,22.14a.31.31,0,0,0-.42,0l-8.16,5.45-.22.16.16.11,8.26,5.52a.27.27,0,0,0,.35,0L36,28ZM6.27,23.12v9.25l6.93-4.62Zm43,0-6.94,4.63,6.94,4.63Z"/></g></svg>