<svg xmlns="http://www.w3.org/2000/svg" viewBox="0 0 55.55 55.5"><title>facebook</title><g id="Layer_2" data-name="Layer 2"><path d="M31.53,19.33h7.61l-.88,8.36H31.51V52.25H31c-3,0-6.06,0-9.08,0-.44,0-.52-.15-.52-.55q0-11.4,0-22.79a6.81,6.81,0,0,1,0-.71c0-.39-.08-.52-.5-.52-1.4,0-2.81,0-4.21,0H16.4V19.33h.45c1.39,0,2.78,0,4.17,0,.35,0,.44-.1.44-.45,0-2.1,0-4.2.05-6.29a10.68,10.68,0,0,1,1.56-5.41A8.1,8.1,0,0,1,28.73,3.6a20.88,20.88,0,0,1,3.35-.33c2.32,0,4.64,0,7,0v8.36H34.63a5.74,5.74,0,0,0-1,.08,2.21,2.21,0,0,0-2.16,2.51c0,1.62,0,3.25,0,4.87C31.51,19.15,31.52,19.22,31.53,19.33Z"/></g></svg>