<svg xmlns="http://www.w3.org/2000/svg" viewBox="0 0 55.55 55.5"><title>instagram</title><g id="Layer_2" data-name="Layer 2"><path d="M37.95,52.5H17.6c-.57-.08-1.13-.21-1.7-.25a13,13,0,0,1-12-9.33c-.47-1.56-.75-26.69-.71-27.21C3.74,8.8,8.85,3.42,15.77,3.19c8-.27,16-.24,24,0,6.1.18,10.66,4.26,12.12,10.22.33,1.35.48,25.57.45,26.14A13.09,13.09,0,0,1,42.19,51.77C40.8,52.1,39.36,52.26,37.95,52.5Zm9.93-35.59c-.22-5.59-3.76-9.23-9.35-9.31Q27.75,7.44,17,7.6c-5.53.08-9.18,3.71-9.28,9.22q-.18,10.84,0,21.68c.09,5.53,3.72,9.16,9.25,9.26q10.84.18,21.68,0c5.07-.08,8.37-2.9,9-7.95C48.14,35.81,48,18.73,47.88,16.91Z"/><path d="M27.82,40.45A12.77,12.77,0,1,1,40.53,27.63,12.77,12.77,0,0,1,27.82,40.45ZM36,27.65a8.21,8.21,0,1,0-8.11,8.25A8.15,8.15,0,0,0,36,27.65Z"/><path d="M44,14.45a3.05,3.05,0,0,1-3,3A3.12,3.12,0,0,1,38,14.38,3,3,0,0,1,41,11.44,3,3,0,0,1,44,14.45Z"/></g></svg>