<svg xmlns="http://www.w3.org/2000/svg" viewBox="0 0 55.55 55.5"><title>linkedin</title><g id="Layer_2" data-name="Layer 2"><path d="M49.54,49.09a3.19,3.19,0,0,1-.05.34H40.71c0-.32-.05-.62-.05-.94,0-4.71,0-9.4,0-14.11a13,13,0,0,0-.37-3.14A4.24,4.24,0,0,0,36,27.67a4.88,4.88,0,0,0-5.14,3,11.23,11.23,0,0,0-.66,3.66c-.08,4.71,0,9.41,0,14.11v1H21.68V20.48h8.47v3.57l.19.1.56-.7c4.18-5.51,13.14-4.85,16.51,0a11.57,11.57,0,0,1,2.1,6.66C49.57,36.42,49.54,42.75,49.54,49.09Z"/><rect x="6.88" y="20.48" width="8.83" height="28.92"/><path d="M16.54,11.25a5.27,5.27,0,1,1-5.15-5.33A5.26,5.26,0,0,1,16.54,11.25Z"/></g></svg>