<svg xmlns="http://www.w3.org/2000/svg" viewBox="0 0 55.55 55.5"><title>twitter</title><g id="Layer_2" data-name="Layer 2"><path d="M1.45,44.48a22.05,22.05,0,0,0,15.73-4.56,11.08,11.08,0,0,1-7.56-3.47,10.4,10.4,0,0,1-2.41-4.1,11.62,11.62,0,0,0,4.72-.18C6.56,30.56,3.71,27,3.41,21.48A11.79,11.79,0,0,0,8.24,22.7,10.89,10.89,0,0,1,4.93,8.28,31,31,0,0,0,27.27,19.6c-.07-.65-.15-1.22-.19-1.79a10.46,10.46,0,0,1,3.84-9,10.46,10.46,0,0,1,8.76-2.38,10.3,10.3,0,0,1,5.86,3,.57.57,0,0,0,.6.17,22.27,22.27,0,0,0,6.13-2.32l.37-.17a9.77,9.77,0,0,1-1.73,3.3,12.42,12.42,0,0,1-2.71,2.52,19.34,19.34,0,0,0,5.91-1.56,19.13,19.13,0,0,1-2.86,3.44c-.71.66-1.46,1.27-2.2,1.89a.72.72,0,0,0-.3.64,29.74,29.74,0,0,1-1.11,9.22,28.61,28.61,0,0,1-3,7.22,50.17,50.17,0,0,1-3.05,4.49,26.08,26.08,0,0,1-4.44,4.43,29.12,29.12,0,0,1-6.2,3.81,30.38,30.38,0,0,1-8.11,2.36,33.64,33.64,0,0,1-7.24.25,26.42,26.42,0,0,1-7.5-1.54c-1.68-.63-3.31-1.4-4.94-2.14A18.48,18.48,0,0,1,1.45,44.48Z"/></g></svg>