<svg id="Layer_1" data-name="Layer 1" xmlns="http://www.w3.org/2000/svg" xmlns:xlink="http://www.w3.org/1999/xlink" viewBox="0 0 52.48 59.45"><defs><style>.cls-1{stroke:#929394;stroke-linejoin:round;stroke-width:5px;fill:url(#New_Gradient_Swatch);}</style><linearGradient id="New_Gradient_Swatch" x1="2.5" y1="29.73" x2="49.98" y2="29.73" gradientUnits="userSpaceOnUse"><stop offset="0" stop-color="#ededed" stop-opacity="0.5"/><stop offset="0.75" stop-color="#dadbdc" stop-opacity="0.5"/><stop offset="1" stop-color="#d1d3d4" stop-opacity="0.5"/></linearGradient></defs><title>Artboard 18</title><path class="cls-1" d="M49.76,33l-23,23.7a.77.77,0,0,1-1.11,0L2.72,33a.77.77,0,0,1,.55-1.31h11a.77.77,0,0,0,.77-.77V3.27a.77.77,0,0,1,.77-.77H36.67a.77.77,0,0,1,.77.77V30.94a.77.77,0,0,0,.77.77h11A.77.77,0,0,1,49.76,33Z"/></svg>