<svg id="Layer_1" data-name="Layer 1" xmlns="http://www.w3.org/2000/svg" viewBox="0 0 363.51 359.27"><defs><style>.cls-1{fill:#1a1a1a;}</style></defs><title>logo</title><path class="cls-1" d="M93.3,250.72h1.35v27H93.3Z"/><path class="cls-1" d="M100.62,269.41c.07,4.39,1.85,7.35,6,7.35s5.73-2.6,5.73-4.79h1.35v.14c0,2.57-2.09,5.94-7.08,5.94-5.23,0-7.42-4.05-7.42-8.94v-.67c0-4.89,2.16-8.94,7.25-8.94s7.25,4,7.25,8.94v1Zm0-1.28h11.67c-.1-4.39-1.92-7.35-5.84-7.35S100.69,263.74,100.62,268.13Z"/><path class="cls-1" d="M128.89,275a7.77,7.77,0,0,1-6.58,3c-3,0-5.06-1.86-5.06-4.72V273c0-3.88,3-4.92,5.67-5.33l5.8-.91v-.67c0-3.48-1.11-5.3-4.72-5.3-3.88,0-4.72,2.26-4.72,5h-1.35v-.3c0-2.56,1-5.94,6.07-5.94,4.66,0,6.07,2.76,6.07,6.58v6.58l.17,5.06h-1Zm-.17-1.62V268l-5.9,1c-2.53.44-4.22,1.69-4.22,4v.34c0,1.79,1.18,3.44,3.88,3.44A6.6,6.6,0,0,0,128.72,273.39Z"/><path class="cls-1" d="M136.14,262.19a6.84,6.84,0,0,1,5.9-2.7c3.37,0,5.4,2.19,5.4,5.57v12.65h-1.35V265.23c0-3.2-1.86-4.45-4.39-4.45a6.11,6.11,0,0,0-5.57,3.1v13.83h-1.35v-27h1.35Z"/><path class="cls-1" d="M165.48,276.76c3.91,0,5.23-2.5,5.23-5.13h1.35v.47c0,2.57-1.72,5.94-6.58,5.94-5.09,0-7.25-4.05-7.25-8.94v-.67c0-4.89,2.16-8.94,7.25-8.94,4.86,0,6.58,3.54,6.58,6.1v.64h-1.35c0-3-1.45-5.47-5.23-5.47-4,0-5.84,3.1-5.84,7.66v.67C159.64,273.66,161.47,276.76,165.48,276.76Z"/><path class="cls-1" d="M187.23,275a7.77,7.77,0,0,1-6.58,3c-3,0-5.06-1.86-5.06-4.72V273c0-3.88,3-4.92,5.67-5.33l5.8-.91v-.67c0-3.48-1.11-5.3-4.72-5.3-3.88,0-4.72,2.26-4.72,5h-1.35v-.3c0-2.56,1-5.94,6.07-5.94,4.66,0,6.07,2.76,6.07,6.58v6.58l.17,5.06h-1Zm-.17-1.62V268l-5.9,1c-2.53.44-4.22,1.69-4.22,4v.34c0,1.79,1.18,3.44,3.88,3.44A6.6,6.6,0,0,0,187.07,273.39Z"/><path class="cls-1" d="M193.47,250.72h1.35v27h-1.35Z"/><path class="cls-1" d="M200.22,250.72h1.35v27h-1.35Z"/><path class="cls-1" d="M217.59,275a7.77,7.77,0,0,1-6.58,3c-3,0-5.06-1.86-5.06-4.72V273c0-3.88,3-4.92,5.67-5.33l5.8-.91v-.67c0-3.48-1.11-5.3-4.72-5.3-3.88,0-4.72,2.26-4.72,5h-1.35v-.3c0-2.56,1-5.94,6.07-5.94,4.66,0,6.07,2.76,6.07,6.58v6.58l.17,5.06h-1Zm-.17-1.62V268l-5.9,1c-2.53.44-4.22,1.69-4.22,4v.34c0,1.79,1.18,3.44,3.88,3.44A6.6,6.6,0,0,0,217.42,273.39Z"/><path class="cls-1" d="M224.84,262.19a6.84,6.84,0,0,1,5.9-2.7c3.37,0,5.4,2.19,5.4,5.57v12.65h-1.35V265.23c0-3.2-1.86-4.45-4.39-4.45a6.11,6.11,0,0,0-5.57,3.1v13.83h-1.35v-27h1.35Z"/><path class="cls-1" d="M251.65,275a7.77,7.77,0,0,1-6.58,3c-3,0-5.06-1.86-5.06-4.72V273c0-3.88,3-4.92,5.67-5.33l5.8-.91v-.67c0-3.48-1.11-5.3-4.72-5.3-3.88,0-4.72,2.26-4.72,5h-1.35v-.3c0-2.56,1-5.94,6.07-5.94,4.66,0,6.07,2.76,6.07,6.58v6.58l.17,5.06h-1Zm-.17-1.62V268l-5.9,1c-2.53.44-4.22,1.69-4.22,4v.34c0,1.79,1.18,3.44,3.88,3.44A6.6,6.6,0,0,0,251.49,273.39Z"/><path class="cls-1" d="M268.86,277.71V265.23c0-3.2-1.86-4.45-4.39-4.45a6.11,6.11,0,0,0-5.57,3.1v13.83h-1.35V264.89l-.17-5.06h1l.3,2.63a6.82,6.82,0,0,1,6.11-3c3.37,0,5.4,2.19,5.4,5.57v12.65Z"/><path d="M139.4,187.56V52L124.25,67.16V202.54h53.63l-15-15Z"/><path d="M239.51,79.81v-9a18.71,18.71,0,0,0-18.14-18.76H212.1a18.85,18.85,0,0,0-19,18.76v113a18.85,18.85,0,0,0,19,18.76h9.27a18.86,18.86,0,0,0,18.14-18.76V156.2l-15,15v9.88a8.1,8.1,0,1,1-16.21,0V73.4a8.1,8.1,0,0,1,16.21,0V94.83Z"/><polyline points="270.17 222.47 270.17 21.33 126.87 21.33 93.34 54.89 93.34 233.33 259.29 233.33 243.91 217.96 108.71 217.96 108.71 60.95 132.96 36.71 254.79 36.71 254.79 207.09 270.17 222.47"/><path d="M26.32,300.2H38.48a34.61,34.61,0,0,1,8.39,1,19.11,19.11,0,0,1,6.94,3.2,15.64,15.64,0,0,1,4.71,5.74,19.25,19.25,0,0,1,1.74,8.57,17.5,17.5,0,0,1-1.69,7.88A16.89,16.89,0,0,1,54,332.3a20,20,0,0,1-6.6,3.51,25.63,25.63,0,0,1-7.85,1.2H26.32Zm8.11,29.32h4.21a22.64,22.64,0,0,0,5.22-.57,11.16,11.16,0,0,0,4.18-1.9,9.1,9.1,0,0,0,2.78-3.48,12.35,12.35,0,0,0,1-5.28,10.3,10.3,0,0,0-1-4.71,9.4,9.4,0,0,0-2.73-3.3,12,12,0,0,0-4-1.95,17.89,17.89,0,0,0-4.86-.65H34.43Z"/><path d="M73,300.2H98v7.49H81.1v6.86h16V322h-16v7.49H98.93V337H73Z"/><path d="M130.53,309.2a5.82,5.82,0,0,0-2.68-1.84,9.7,9.7,0,0,0-3.2-.6,8.45,8.45,0,0,0-1.82.21,7,7,0,0,0-1.77.65,3.85,3.85,0,0,0-1.35,1.17,3.24,3.24,0,0,0,.73,4.31,11.73,11.73,0,0,0,3.14,1.51q1.9.62,4.08,1.24a17,17,0,0,1,4.08,1.77,9.71,9.71,0,0,1,3.14,3.07,9.35,9.35,0,0,1,1.25,5.15,11.83,11.83,0,0,1-1.14,5.35,10.87,10.87,0,0,1-3.09,3.79,13.1,13.1,0,0,1-4.52,2.23,20.74,20.74,0,0,1-12.08-.36,16.75,16.75,0,0,1-5.72-3.53l5.77-6.34a8.39,8.39,0,0,0,3.15,2.57,8.86,8.86,0,0,0,5.92.68,6.55,6.55,0,0,0,1.82-.7,3.9,3.9,0,0,0,1.3-1.2,3,3,0,0,0,.49-1.71,3.11,3.11,0,0,0-1.27-2.63,11.68,11.68,0,0,0-3.2-1.64q-1.92-.68-4.16-1.35a18.57,18.57,0,0,1-4.16-1.82,10,10,0,0,1-3.2-3,8.6,8.6,0,0,1-1.27-4.94,11.09,11.09,0,0,1,1.17-5.2,11.28,11.28,0,0,1,3.12-3.74,13.58,13.58,0,0,1,4.5-2.26,18.43,18.43,0,0,1,5.25-.75,20.69,20.69,0,0,1,6,.88,14,14,0,0,1,5.25,3Z"/><path d="M149,300.2h8.11V337H149Z"/><path d="M204.7,334.4a29.28,29.28,0,0,1-7.49,2.7,38.09,38.09,0,0,1-8,.83,22.68,22.68,0,0,1-8-1.35,18.19,18.19,0,0,1-6.29-3.87,17.51,17.51,0,0,1-4.13-6.1,22.36,22.36,0,0,1,0-16,17.53,17.53,0,0,1,4.13-6.11,18.19,18.19,0,0,1,6.29-3.87,22.68,22.68,0,0,1,8-1.35,29.37,29.37,0,0,1,8.14,1.07,15.88,15.88,0,0,1,6.52,3.66l-5.72,6.24a11.34,11.34,0,0,0-3.74-2.6,13.37,13.37,0,0,0-5.2-.88,12.06,12.06,0,0,0-4.7.88,10.5,10.5,0,0,0-3.61,2.47,10.84,10.84,0,0,0-2.31,3.77,14.38,14.38,0,0,0,0,9.48,10.9,10.9,0,0,0,2.31,3.74,10.55,10.55,0,0,0,3.61,2.47,12,12,0,0,0,4.7.88,15.49,15.49,0,0,0,4.57-.6,17.36,17.36,0,0,0,3.07-1.22v-6h-6.6v-7.49h14.4Z"/><path d="M218.73,300.2h11l15.65,25.57h.1V300.2h8.11V337H243l-16.06-26.2h-.11V337h-8.11Z"/><path d="M268.32,300.2h25v7.49H276.43v6.86h16V322h-16v7.49h17.83V337H268.32Z"/><path d="M307.66,300.2H321.9a25.09,25.09,0,0,1,5.33.55,12.58,12.58,0,0,1,4.42,1.82,9.07,9.07,0,0,1,3,3.43,11.64,11.64,0,0,1,1.12,5.38,10.8,10.8,0,0,1-2,6.63,9.13,9.13,0,0,1-5.93,3.46L337.19,337h-9.72l-7.69-14.71h-4V337h-8.11Zm8.11,15.23h4.78c.73,0,1.5,0,2.31-.08a7.17,7.17,0,0,0,2.21-.47,3.8,3.8,0,0,0,1.64-1.22,3.73,3.73,0,0,0,.65-2.34,3.9,3.9,0,0,0-.57-2.23,3.84,3.84,0,0,0-1.46-1.27,6.52,6.52,0,0,0-2-.6,16.69,16.69,0,0,0-2.23-.15h-5.3Z"/></svg>