<svg id="Layer_1" data-name="Layer 1" xmlns="http://www.w3.org/2000/svg" viewBox="0 0 1708.67 108.49"><defs><style>.cls-1{fill:#414042;}</style></defs><title>Artboard 20</title><path class="cls-1" d="M26.81,31.73H37V67.89h19.3v8.88H26.81Z"/><path class="cls-1" d="M66.19,31.73h34.29v8.43H76.35v9.78H98v8.43H76.35v10h24.83v8.43h-35Z"/><path class="cls-1" d="M146.29,76.77,142.75,68H121.9l-3.54,8.75H107.88l19.56-45h10.49l19.24,45Zm-21-16.92h14.22l-7.08-17.5Z"/><path class="cls-1" d="M165.72,31.73h10.16V50.52h20.39V31.73h10.16v45H196.27V59H175.88V76.77H165.72Z"/><path class="cls-1" d="M266.3,41.48A13.81,13.81,0,0,0,260,39.9a13.49,13.49,0,0,0-11.9,6.95,14.38,14.38,0,0,0-1.8,7.14,14.55,14.55,0,0,0,1.8,7.17,13.6,13.6,0,0,0,5,5.15,13.21,13.21,0,0,0,6.95,1.9,14.52,14.52,0,0,0,6.14-1.45,19.3,19.3,0,0,0,5.57-3.89l6,6.5a27.13,27.13,0,0,1-8.46,5.92,23.56,23.56,0,0,1-9.75,2.19,24,24,0,0,1-12-3.06A22.33,22.33,0,0,1,239,66a23.35,23.35,0,0,1-3.09-11.9A22.47,22.47,0,0,1,247.71,34a24.89,24.89,0,0,1,12.19-3,25.41,25.41,0,0,1,17.76,7.53l-5.92,7.27A17.13,17.13,0,0,0,266.3,41.48Z"/><path class="cls-1" d="M320.44,76.77,316.9,68H296.06l-3.54,8.75H282l19.56-45h10.49l19.24,45Zm-21-16.92h14.22l-7.08-17.5Z"/><path class="cls-1" d="M339.87,31.73H350V67.89h19.3v8.88H339.87Z"/><path class="cls-1" d="M379.24,31.73h10.16V67.89h19.3v8.88H379.24Z"/><path class="cls-1" d="M452.14,76.77,448.6,68H427.75l-3.54,8.75H413.73l19.56-45h10.49l19.24,45Zm-21-16.92h14.22l-7.08-17.5Z"/><path class="cls-1" d="M471.57,31.73h10.16V50.52h20.39V31.73h10.16v45H502.12V59H481.73V76.77H471.57Z"/><path class="cls-1" d="M559.32,76.77,555.78,68H534.94l-3.54,8.75H520.91l19.56-45H551l19.24,45Zm-21-16.92H552.5l-7.08-17.5Z"/><path class="cls-1" d="M609.89,31.73h9.65v45h-9.26l-21.81-29v29h-9.72v-45H588l21.88,29.08Z"/><path class="cls-1" d="M765.58,54.13h6.29V70.64a26.36,26.36,0,0,1-7.95,4.26,27.75,27.75,0,0,1-9.1,1.57,23.31,23.31,0,0,1-11.67-3,22.32,22.32,0,0,1-8.37-8.18,22,22,0,0,1-3.07-11.4,21.38,21.38,0,0,1,3.11-11.32,22.28,22.28,0,0,1,8.52-8.06,24.51,24.51,0,0,1,11.94-3,26.2,26.2,0,0,1,9.1,1.65,23.33,23.33,0,0,1,7.71,4.57L768,43a19.69,19.69,0,0,0-6-3.72,18.09,18.09,0,0,0-6.8-1.34A16.28,16.28,0,0,0,747.12,40a16.06,16.06,0,0,0-5.84,22,16.25,16.25,0,0,0,14.09,8,17.16,17.16,0,0,0,5.14-.84,22.74,22.74,0,0,0,5.07-2.3Z"/><path class="cls-1" d="M814.26,75.94,806.12,62.5a18,18,0,0,1-2,.08H793.6V75.94h-7.22V32h17.73q8.44,0,13.05,3.91T821.78,47a16,16,0,0,1-2.34,8.9,13.53,13.53,0,0,1-6.79,5.3l9.9,14.74ZM804.12,56.36q5.15,0,7.95-2.34t2.8-6.87a8,8,0,0,0-2.8-6.57q-2.81-2.26-7.95-2.26H793.6v18Z"/><path class="cls-1" d="M866.54,75.94l-4.3-10.06H840.05l-4.3,10.06h-7.53L847.57,32h7.53l19.19,43.91Zm-24-16.2h17l-8.52-20Z"/><path class="cls-1" d="M914,35.94q4.53,3.92,4.53,11.06,0,7.45-4.53,11.51t-12.82,4.07H891V75.94h-7.22V32h17.43Q909.46,32,914,35.94ZM908.84,54q2.77-2.34,2.76-6.87,0-4.38-2.76-6.6t-8-2.23H891v18h9.9Q906.07,56.36,908.84,54Z"/><path class="cls-1" d="M930.26,32h7.22V51.22H961V32h7.22V75.94H961L961,57.51H937.48V75.94h-7.22Z"/><path class="cls-1" d="M984.76,32H992V75.94h-7.22Z"/><path class="cls-1" d="M1034.4,39.43a15.75,15.75,0,0,0-6.64-1.5,15.61,15.61,0,0,0-13.71,7.87,16.31,16.31,0,0,0,0,16,15.92,15.92,0,0,0,5.72,5.8,15.32,15.32,0,0,0,8,2.15,16.34,16.34,0,0,0,6.56-1.42,19.43,19.43,0,0,0,5.8-3.88l4.22,4.68a24.32,24.32,0,0,1-7.79,5.33,22.54,22.54,0,0,1-9.1,2,22.88,22.88,0,0,1-11.59-3,22.34,22.34,0,0,1-11.29-19.58,21.5,21.5,0,0,1,3.07-11.32,22.14,22.14,0,0,1,8.37-8.06,24,24,0,0,1,20.69-1.15,23,23,0,0,1,7.64,5l-4.22,5.22A17.66,17.66,0,0,0,1034.4,39.43Z"/><path class="cls-1" d="M1108,77.09q-2.6-2.61-6.91-6.75-6.14,5.91-13.28,5.91a15.38,15.38,0,0,1-7-1.57,12.22,12.22,0,0,1-5-4.38,11.45,11.45,0,0,1-1.8-6.33,10,10,0,0,1,2.49-7,26.2,26.2,0,0,1,7-5.22,26.71,26.71,0,0,1-3.19-5.37,12.24,12.24,0,0,1-1-4.76,9.07,9.07,0,0,1,3.15-7.14,12.11,12.11,0,0,1,8.29-2.77,11.89,11.89,0,0,1,7.91,2.57,8.26,8.26,0,0,1,3.07,6.64,8.73,8.73,0,0,1-2.73,6.64,36.83,36.83,0,0,1-7.95,5.33q3.3,3.76,9.37,9.67a38.28,38.28,0,0,0,3.91-8L1109,58a36.75,36.75,0,0,1-4.61,8.37l7.22,7Zm-10.67-10.52q-7.22-7.06-10.83-11.21a19.71,19.71,0,0,0-4.87,3.65,6.32,6.32,0,0,0-1.73,4.41,7,7,0,0,0,2.34,5.41,8.32,8.32,0,0,0,5.8,2.11Q1092.78,70.95,1097.32,66.57Zm-9.06-17.2a27.82,27.82,0,0,0,6-3.84,5.89,5.89,0,0,0,2-4.53,4.56,4.56,0,0,0-1.5-3.57,5.57,5.57,0,0,0-3.87-1.34,5.88,5.88,0,0,0-4.3,1.57,5.29,5.29,0,0,0-1.62,4Q1085,44.92,1088.25,49.37Z"/><path class="cls-1" d="M1137.24,32H1145L1156,68,1166.95,32h7.14l11,35.93L1196,32h7.45l-14.9,43.91h-7.44L1170.4,41.39l-10.9,34.55h-7.44Z"/><path class="cls-1" d="M1213.55,32H1245v6.3h-24.26V50.6h21.73V56.9h-21.73V69.64h25v6.3h-32.24Z"/><path class="cls-1" d="M1288.86,35a9.45,9.45,0,0,1,4,8,9.76,9.76,0,0,1-2.07,6.33,10.33,10.33,0,0,1-5.75,3.49,11.22,11.22,0,0,1,7.1,3.68,10.94,10.94,0,0,1,2.57,7.37,10.4,10.4,0,0,1-4.34,8.83q-4.34,3.22-11.86,3.22h-19.81V32H1278Q1284.87,32,1288.86,35Zm-5.45,13.86a5.49,5.49,0,0,0,2.07-4.61,5.23,5.23,0,0,0-2.07-4.41,9.5,9.5,0,0,0-5.84-1.57H1265.9V50.45h11.67A9.31,9.31,0,0,0,1283.41,48.83Zm1.3,19.12a5.73,5.73,0,0,0,2.53-5,5.38,5.38,0,0,0-2.57-4.76,12.85,12.85,0,0,0-7.1-1.69H1265.9V69.72h11.67Q1282.19,69.72,1284.71,68Z"/><path class="cls-1" d="M1359.8,34.86a21,21,0,0,1,8.18,7.83,21.73,21.73,0,0,1,3,11.29,21.57,21.57,0,0,1-3,11.25,21,21,0,0,1-8.25,7.87,24.54,24.54,0,0,1-11.86,2.84h-17.89V32h18.12A24.18,24.18,0,0,1,1359.8,34.86Zm-3.72,32.71a14.41,14.41,0,0,0,5.48-5.53,15.92,15.92,0,0,0,2-8,15.73,15.73,0,0,0-2.07-8,15.06,15.06,0,0,0-5.65-5.6,15.77,15.77,0,0,0-7.95-2h-10.75V69.56h11.13A15.45,15.45,0,0,0,1356.08,67.57Z"/><path class="cls-1" d="M1383.6,32h31.48v6.3h-24.26V50.6h21.73V56.9h-21.73V69.64h25v6.3H1383.6Z"/><path class="cls-1" d="M1448.36,39a21.42,21.42,0,0,0-6.18-1.07,10.19,10.19,0,0,0-5.6,1.34A4.21,4.21,0,0,0,1434.5,43a4.91,4.91,0,0,0,2.46,4.49,32.12,32.12,0,0,0,7.52,3,66.62,66.62,0,0,1,7.37,2.73,12.68,12.68,0,0,1,4.76,3.84,10.67,10.67,0,0,1,2,6.72A10.88,10.88,0,0,1,1454,73q-4.6,3.38-12,3.38a26.1,26.1,0,0,1-9.67-1.88,27.45,27.45,0,0,1-8.29-5l3.07-6.07a22.75,22.75,0,0,0,7.22,4.72,20.39,20.39,0,0,0,7.83,1.73,11.39,11.39,0,0,0,6.38-1.53,4.82,4.82,0,0,0,2.3-4.22,5,5,0,0,0-1.34-3.57,9.3,9.3,0,0,0-3.38-2.23c-1.35-.54-3.19-1.14-5.49-1.8a65.5,65.5,0,0,1-7.29-2.61,12.26,12.26,0,0,1-4.73-3.72,10.36,10.36,0,0,1-2-6.57,10.57,10.57,0,0,1,4.38-8.9q4.38-3.3,11.67-3.3a28.37,28.37,0,0,1,8.14,1.19,24.55,24.55,0,0,1,7,3.26L1455,42A29.39,29.39,0,0,0,1448.36,39Z"/><path class="cls-1" d="M1471.58,32h7.22V75.94h-7.22Z"/><path class="cls-1" d="M1525.16,54.13h6.3V70.64a26.48,26.48,0,0,1-7.95,4.26,27.8,27.8,0,0,1-9.1,1.57,23.3,23.3,0,0,1-11.67-3,22.37,22.37,0,0,1-8.37-8.18,22,22,0,0,1-3.07-11.4,21.34,21.34,0,0,1,3.11-11.32,22.28,22.28,0,0,1,8.52-8.06,24.51,24.51,0,0,1,11.94-3,26.25,26.25,0,0,1,9.1,1.65,23.39,23.39,0,0,1,7.71,4.57L1527.62,43a19.67,19.67,0,0,0-5.95-3.72,18.11,18.11,0,0,0-6.8-1.34A16.27,16.27,0,0,0,1506.7,40a15.58,15.58,0,0,0-5.88,5.8,16.22,16.22,0,0,0,0,16.2A16.24,16.24,0,0,0,1515,70a17.16,17.16,0,0,0,5.14-.84,22.81,22.81,0,0,0,5.06-2.3Z"/><path class="cls-1" d="M1546,32h6.84l24.26,32.32V32H1584V75.94h-6.91L1553,43.69V75.94h-7Z"/><path class="cls-1" d="M1600.55,32H1632v6.3h-24.26V50.6h21.73V56.9h-21.73V69.64h25v6.3h-32.24Z"/><path class="cls-1" d="M1673.57,75.94l-8.14-13.43a18,18,0,0,1-2,.08h-10.52V75.94h-7.22V32h17.73q8.44,0,13.05,3.91t4.6,11.06a16,16,0,0,1-2.34,8.9,13.54,13.54,0,0,1-6.8,5.3l9.91,14.74Zm-10.13-19.58q5.14,0,7.95-2.34t2.8-6.87a8,8,0,0,0-2.8-6.57q-2.81-2.26-7.95-2.26h-10.52v18Z"/><rect class="cls-1" x="674.56" y="22.5" width="4.28" height="63.5"/></svg>